<svg xmlns="http://www.w3.org/2000/svg" xmlns:xlink="http://www.w3.org/1999/xlink" id="Layer_1" x="0px" y="0px" viewBox="0 0 221.8 14.8" style="enable-background:new 0 0 221.8 14.8;" xml:space="preserve"><style type="text/css">	.st0{fill:#DE6426;}</style><g>	<path d="M1.1,5.2H0.3V3.5h0.8V1.9h2.1v1.6h1.3v1.7H3.1v2.7c0,0.4,0.2,0.6,0.6,0.6h0.7v1.7h-1c-1.4,0-2.4-0.6-2.4-2.3V5.2z"></path>	<path d="M5.5,1.4h2.1v3.1c0.4-0.6,1.1-1,2.1-1c1.5,0,2.5,1.1,2.5,2.9v3.9h-2V6.6c0-0.9-0.5-1.4-1.3-1.4c-0.8,0-1.3,0.5-1.3,1.4v3.6   H5.5V1.4z"></path>	<path d="M13.3,1.7c0-0.6,0.5-1.1,1.2-1.1c0.7,0,1.2,0.5,1.2,1.1c0,0.6-0.5,1.1-1.2,1.1C13.8,2.8,13.3,2.4,13.3,1.7z M13.5,3.5h2.1   v6.7h-2.1V3.5z"></path>	<path d="M21.5,6.6c0-0.9-0.5-1.4-1.3-1.4c-0.8,0-1.3,0.5-1.3,1.4v3.6h-2.1V3.5h2.1v0.9c0.4-0.6,1.1-1,2-1c1.5,0,2.6,1.1,2.6,2.9   v3.9h-2V6.6z"></path>	<path d="M24.9,1.4h2.1v4.9l2-2.7h2.5l-2.8,3.4l2.8,3.3h-2.5l-2-2.8v2.8h-2.1V1.4z"></path>	<path d="M35.9,3.5c1.8,0,3.1,1.3,3.1,3.4c0,2-1.4,3.4-3.1,3.4c-1.2,0-2.1-0.6-2.5-1.3v1.2h-1.1V1.4h1.1v3.5   C33.8,4.1,34.7,3.5,35.9,3.5z M35.6,4.5c-1.2,0-2.2,0.9-2.2,2.4c0,1.5,1,2.4,2.2,2.4c1.2,0,2.2-0.9,2.2-2.5   C37.9,5.4,36.9,4.5,35.6,4.5z"></path>	<path d="M41.4,10.2h-1.1V3.7h1.1v1.1c0.4-0.7,1.1-1.2,2.1-1.2v1.1h-0.3c-1,0-1.8,0.5-1.8,2V10.2z"></path>	<path d="M44.5,1.8c0-0.4,0.3-0.7,0.7-0.7c0.4,0,0.7,0.3,0.7,0.7s-0.3,0.7-0.7,0.7C44.8,2.6,44.5,2.3,44.5,1.8z M44.7,3.7h1.1v6.6   h-1.1V3.7z"></path>	<path d="M50.2,3.5c1,0,2,0.5,2.4,1.3V1.4h1.1v8.9h-1.1V9c-0.4,0.7-1.2,1.3-2.4,1.3c-1.8,0-3.1-1.4-3.1-3.4   C47.1,4.9,48.5,3.5,50.2,3.5z M50.4,4.5c-1.2,0-2.2,0.9-2.2,2.4c0,1.5,1,2.5,2.2,2.5c1.2,0,2.2-0.9,2.2-2.4   C52.7,5.4,51.6,4.5,50.4,4.5z"></path>	<path d="M58.2,3.5c1.2,0,2.1,0.6,2.4,1.3V3.7h1.1v6.7c0,1.8-1.2,3.1-3.1,3.1c-1.7,0-3-0.9-3.2-2.3h1.1c0.2,0.8,1,1.3,2.1,1.3   c1.2,0,2-0.7,2-2.1V9c-0.4,0.7-1.2,1.3-2.4,1.3c-1.8,0-3.1-1.4-3.1-3.4C55.1,4.9,56.4,3.5,58.2,3.5z M58.4,4.5   c-1.2,0-2.2,0.9-2.2,2.4c0,1.5,1,2.5,2.2,2.5c1.2,0,2.2-0.9,2.2-2.4C60.7,5.4,59.6,4.5,58.4,4.5z"></path>	<path d="M66.3,10.3c-1.9,0-3.3-1.3-3.3-3.4c0-2.1,1.3-3.4,3.3-3.4c1.9,0,3.2,1.3,3.2,3.1c0,0.2,0,0.4,0,0.7h-5.3   c0.1,1.3,1,2.1,2.1,2.1c1,0,1.6-0.5,1.8-1.2h1.2C69,9.4,68,10.3,66.3,10.3z M64.2,6.5h4.1c0-1.3-0.9-2-2.1-2   C65.2,4.5,64.3,5.2,64.2,6.5z"></path></g><g>	<path class="st0" d="M80.7,4.7h-0.8V3.6h0.8V2H82v1.6h1.6v1.1H82v3.7c0,0.5,0.2,0.7,0.8,0.7h0.8v1.1h-1.1c-1.2,0-1.9-0.5-1.9-1.8   V4.7z"></path>	<path class="st0" d="M84.7,1.4H86v3c0.5-0.6,1.2-0.9,2.1-0.9c1.5,0,2.6,1,2.6,2.8v3.9h-1.4V6.5c0-1.2-0.7-1.8-1.7-1.8   c-1,0-1.7,0.6-1.7,1.8v3.7h-1.4V1.4z"></path>	<path class="st0" d="M95,10.3c-1.9,0-3.3-1.3-3.3-3.4c0-2.1,1.3-3.4,3.3-3.4c1.9,0,3.2,1.3,3.2,3.2c0,0.2,0,0.4,0,0.7h-5   C93.3,8.5,94,9.2,95,9.2c0.8,0,1.3-0.4,1.6-0.9h1.5C97.7,9.4,96.7,10.3,95,10.3z M93.2,6.3h3.7c0-1-0.8-1.7-1.8-1.7   C94.1,4.7,93.3,5.3,93.2,6.3z"></path>	<path class="st0" d="M100.7,10.2h-1.4V3.6h1.4v1c0.4-0.7,1-1.1,2-1.1v1.4h-0.3c-1,0-1.6,0.4-1.6,1.8V10.2z"></path>	<path class="st0" d="M106.6,10.3c-1.9,0-3.3-1.3-3.3-3.4c0-2.1,1.3-3.4,3.3-3.4c1.9,0,3.2,1.3,3.2,3.2c0,0.2,0,0.4,0,0.7h-5   c0.1,1.1,0.9,1.8,1.9,1.8c0.8,0,1.3-0.4,1.6-0.9h1.5C109.2,9.4,108.2,10.3,106.6,10.3z M104.7,6.3h3.7c0-1-0.8-1.7-1.8-1.7   C105.6,4.7,104.9,5.3,104.7,6.3z"></path>	<path class="st0" d="M110.4,4.7l0.7-2.9h1.5l-1.3,2.9H110.4z"></path>	<path class="st0" d="M116,10.3c-1.6,0-2.7-0.9-2.8-2.1h1.4c0,0.5,0.6,1,1.3,1c0.8,0,1.2-0.3,1.2-0.8c0-1.3-3.8-0.6-3.8-3   c0-1.1,1-1.9,2.5-1.9c1.5,0,2.5,0.8,2.6,2.1H117c0-0.6-0.5-1-1.2-1c-0.7,0-1.1,0.3-1.1,0.7c0,1.3,3.7,0.6,3.8,3   C118.5,9.5,117.5,10.3,116,10.3z"></path>	<path class="st0" d="M125.3,3.5c1.1,0,1.9,0.5,2.3,1.1v-1h1.4v6.6h-1.4v-1c-0.4,0.6-1.2,1.1-2.3,1.1c-1.7,0-3.1-1.4-3.1-3.4   C122.2,4.9,123.5,3.5,125.3,3.5z M125.6,4.7c-1,0-2,0.8-2,2.2s1,2.3,2,2.3c1,0,2-0.8,2-2.2C127.6,5.5,126.6,4.7,125.6,4.7z"></path>	<path class="st0" d="M138.1,6.5c0-1.2-0.7-1.8-1.7-1.8c-1,0-1.7,0.6-1.7,1.8v3.7h-1.4V3.6h1.4v0.8c0.4-0.5,1.2-0.9,2-0.9   c1.5,0,2.7,1,2.7,2.8v3.9h-1.4V6.5z"></path>	<path class="st0" d="M143.8,10.3c-1.9,0-3.3-1.3-3.3-3.4c0-2.1,1.3-3.4,3.3-3.4c1.9,0,3.2,1.3,3.2,3.2c0,0.2,0,0.4,0,0.7h-5   c0.1,1.1,0.9,1.8,1.9,1.8c0.8,0,1.3-0.4,1.6-0.9h1.5C146.4,9.4,145.4,10.3,143.8,10.3z M141.9,6.3h3.7c0-1-0.8-1.7-1.8-1.7   C142.8,4.7,142.1,5.3,141.9,6.3z"></path>	<path class="st0" d="M147.3,3.6h1.4l1.4,5.3l1.4-5.3h1.4l1.3,5.3l1.4-5.3h1.3l-2.1,6.6h-1.4l-1.3-4.9l-1.3,4.9h-1.4L147.3,3.6z"></path>	<path class="st0" d="M159.9,3.6h1.4l1.4,5.3l1.4-5.3h1.4l1.3,5.3l1.4-5.3h1.3l-2.1,6.6H166l-1.3-4.9l-1.3,4.9h-1.4L159.9,3.6z"></path>	<path class="st0" d="M173,3.5c1.1,0,1.9,0.5,2.3,1.1v-1h1.4v6.6h-1.4v-1c-0.4,0.6-1.2,1.1-2.3,1.1c-1.7,0-3.1-1.4-3.1-3.4   C169.8,4.9,171.2,3.5,173,3.5z M173.3,4.7c-1,0-2,0.8-2,2.2s1,2.3,2,2.3c1,0,2-0.8,2-2.2C175.3,5.5,174.3,4.7,173.3,4.7z"></path>	<path class="st0" d="M182.7,3.6h1.4l-4.1,9.7h-1.4l1.3-3.2l-2.6-6.5h1.5l1.9,5L182.7,3.6z"></path>	<path class="st0" d="M188,4.7h-0.8V3.6h0.8V2h1.4v1.6h1.6v1.1h-1.6v3.7c0,0.5,0.2,0.7,0.8,0.7h0.8v1.1h-1.1c-1.2,0-1.9-0.5-1.9-1.8   V4.7z"></path>	<path class="st0" d="M192,1.4h1.4v3c0.5-0.6,1.2-0.9,2.1-0.9c1.5,0,2.6,1,2.6,2.8v3.9h-1.4V6.5c0-1.2-0.7-1.8-1.7-1.8   c-1,0-1.7,0.6-1.7,1.8v3.7H192V1.4z"></path>	<path class="st0" d="M202.4,10.3c-1.9,0-3.3-1.3-3.3-3.4c0-2.1,1.3-3.4,3.3-3.4c1.9,0,3.2,1.3,3.2,3.2c0,0.2,0,0.4,0,0.7h-5   c0.1,1.1,0.9,1.8,1.9,1.8c0.8,0,1.3-0.4,1.6-0.9h1.5C205.1,9.4,204.1,10.3,202.4,10.3z M200.6,6.3h3.7c0-1-0.8-1.7-1.8-1.7   C201.5,4.7,200.7,5.3,200.6,6.3z"></path>	<path class="st0" d="M208.1,10.2h-1.4V3.6h1.4v1c0.4-0.7,1-1.1,2-1.1v1.4h-0.3c-1,0-1.6,0.4-1.6,1.8V10.2z"></path>	<path class="st0" d="M214,10.3c-1.9,0-3.3-1.3-3.3-3.4c0-2.1,1.3-3.4,3.3-3.4c1.9,0,3.2,1.3,3.2,3.2c0,0.2,0,0.4,0,0.7h-5   c0.1,1.1,0.9,1.8,1.9,1.8c0.8,0,1.3-0.4,1.6-0.9h1.5C216.6,9.4,215.6,10.3,214,10.3z M212.1,6.3h3.7c0-1-0.8-1.7-1.8-1.7   C213,4.7,212.2,5.3,212.1,6.3z"></path></g><rect x="73.9" y="0.6" width="1" height="10.3"></rect><g>	<path class="st0" d="M217.2,2h1.7v0.4h-0.6v2h-0.5v-2h-0.6V2z"></path>	<path class="st0" d="M219.2,2h0.5l0.8,1.8l0.8-1.8h0.5v2.4h-0.5V2.8l-0.6,1.5h-0.4l-0.6-1.5v1.5h-0.5V2z"></path></g></svg>